<svg xmlns="http://www.w3.org/2000/svg" viewBox="0 0 64 64">
  <defs>
    <linearGradient id="edgeBlue" x1="0%" x2="100%" y1="0%" y2="100%">
      <stop offset="0%" stop-color="#2aa8ff"/>
      <stop offset="100%" stop-color="#0067c0"/>
    </linearGradient>
    <linearGradient id="edgeGreen" x1="15%" x2="85%" y1="15%" y2="85%">
      <stop offset="0%" stop-color="#39d98a"/>
      <stop offset="100%" stop-color="#17b978"/>
    </linearGradient>
  </defs>
  <circle cx="32" cy="32" r="29" fill="url(#edgeBlue)"/>
  <path
    d="M50 42c-2.8 8.1-10.2 14-19.4 14C18.1 56 8 46.8 8 35.2 8 22.4 18.9 12 31.9 12c9.4 0 17.8 5.6 21.2 13.9-3.8-3.2-8.8-5.1-14.2-5.1-12 0-20.7 8-20.7 18.7 0 2 .3 3.8.8 5.4 1.7-4.9 6.6-8.4 12.6-8.4h18.4z"
    fill="url(#edgeGreen)"
  />
  <path
    d="M52 27.8c.1 1 .2 2 .2 3 0 3.9-1.3 7.7-3.7 11.2H31.7c-3.2 0-5.8 2-6.7 4.8-1.1-1.7-1.7-3.8-1.7-6 0-8.3 7.2-14.5 16.5-14.5 4.6 0 8.8 1.4 12.2 3.5z"
    fill="#ffffff"
    fill-opacity=".92"
  />
</svg>
